<svg xmlns="http://www.w3.org/2000/svg" viewBox="0 0 2232 1790"><g fill="none" fill-rule="evenodd"><path fill="#01BA5C" fill-rule="nonzero" d="M425.528 57.927-101.5 1790.001h2433L1798.471 57.927z"/><path fill="#00AE55" d="M106.278 1260.039h2008.589l70.633 245.962H29.5z"/><path fill="#01BA5C" d="M157.48 1080.646h1906.3l52.608 179.393H104.865z"/><path fill="#00AE55" d="M205.386 917.288h1813.031l50.138 163.358h-1912z"/><path fill="#01BA5C" d="M249.076 768.962h1724.309l43.015 148.326H205.962z"/><path fill="#00AE55" d="M286.293 633.666H1934.64l39.438 135.296H249.959z"/><path fill="#01BA5C" d="M322.633 510.395h1575.931l36.369 123.271H287.895z"/><path fill="#00AE55" d="M356.42 398.149h1512.415l33.022 112.246h-1578z"/><path fill="#01BA5C" d="M386.206 295.925h1449.818l27.033 102.224H359.569z"/><path fill="#00AE55" fill-rule="nonzero" d="M413.247 202.721h1400.168l26.107 93.204h-1452z"/><path fill="#01BA5C" d="M438.021 116.531h1347.748l22.897 86.19H414.861z"/><path fill="#01BA5C" d="M438.021 116.531h1347.748l22.897 86.19H414.861z"/><g><path fill="#000" fill-rule="nonzero" opacity=".102" d="m925.207 57.925 29.95 57.605h314.474l29.95-57.605z"/><path fill="#CECECE" fill-rule="nonzero" d="m965.69 4.799 7.203 4.11v8.221l-7.204 4.11-7.203-4.11V8.91l7.203-4.111m0-1.007-8.003 4.614v9.227l8.003 4.614 8.004-4.614V8.406l-8.004-4.614Z"/><path fill="#CECECE" fill-rule="nonzero" d="m980.896 4.799 7.203 4.11v8.221l-7.203 4.11-7.203-4.11V8.91l7.203-4.111m0-1.007-8.003 4.614v9.227l8.003 4.614 8.003-4.614V8.406l-8.003-4.614Z"/><path fill="#CECECE" fill-rule="nonzero" d="m996.102 4.799 7.204 4.11v8.221l-7.204 4.11-7.203-4.11V8.91l7.203-4.111m0-1.007L988.1 8.406v9.227l8.003 4.614 8.004-4.614V8.406l-8.004-4.614Z"/><path fill="#CECECE" fill-rule="nonzero" d="m1011.309 4.799 7.203 4.11v8.221l-7.203 4.11-7.203-4.11V8.91l7.203-4.111m0-1.007-8.003 4.614v9.227l8.003 4.614 8.003-4.614V8.406l-8.003-4.614Z"/><path fill="#CECECE" fill-rule="nonzero" d="m1026.516 4.799 7.203 4.11v8.221l-7.203 4.11-7.204-4.11V8.91l7.204-4.111m0-1.007-8.004 4.614v9.227l8.004 4.614 8.003-4.614V8.406l-8.003-4.614Z"/><path fill="#CECECE" fill-rule="nonzero" d="m1041.722 4.799 7.203 4.11v8.221l-7.203 4.11-7.203-4.11V8.91l7.203-4.111m0-1.007-8.003 4.614v9.227l8.003 4.614 8.004-4.614V8.406l-8.004-4.614Z"/><path fill="#CECECE" fill-rule="nonzero" d="m1056.929 4.799 7.203 4.11v8.221l-7.203 4.11-7.203-4.11V8.91l7.203-4.111m0-1.007-8.004 4.614v9.227l8.004 4.614 8.003-4.614V8.406l-8.003-4.614Z"/><path fill="#CECECE" fill-rule="nonzero" d="m1072.135 4.799 7.203 4.11v8.221l-7.203 4.11-7.203-4.11V8.91l7.203-4.111m0-1.007-8.003 4.614v9.227l8.003 4.614 8.004-4.614V8.406l-8.004-4.614Z"/><path fill="#CECECE" fill-rule="nonzero" d="m1087.342 4.799 7.203 4.11v8.221l-7.203 4.11-7.203-4.11V8.91l7.203-4.111m0-1.007-8.004 4.614v9.227l8.004 4.614 8.003-4.614V8.406l-8.003-4.614Z"/><path fill="#CECECE" fill-rule="nonzero" d="m1102.548 4.799 7.203 4.11v8.221l-7.203 4.11-7.203-4.11V8.91l7.203-4.111m0-1.007-8.003 4.614v9.227l8.003 4.614 8.004-4.614V8.406l-8.004-4.614Z"/><path fill="#CECECE" fill-rule="nonzero" d="m1117.755 4.799 7.203 4.11v8.221l-7.203 4.11-7.203-4.11V8.91l7.203-4.111m0-1.007-8.004 4.614v9.227l8.004 4.614 8.003-4.614V8.406l-8.003-4.614Z"/><path fill="#CECECE" fill-rule="nonzero" d="m1132.961 4.799 7.203 4.11v8.221l-7.203 4.11-7.203-4.11V8.91l7.203-4.111m0-1.007-8.003 4.614v9.227l8.003 4.614 8.004-4.614V8.406l-8.004-4.614Z"/><path fill="#CECECE" fill-rule="nonzero" d="m1148.168 4.799 7.203 4.11v8.221l-7.203 4.11-7.203-4.11V8.91l7.203-4.111m0-1.007-8.004 4.614v9.227l8.004 4.614 8.003-4.614V8.406l-8.003-4.614Z"/><path fill="#CECECE" fill-rule="nonzero" d="m1163.374 4.799 7.203 4.11v8.221l-7.203 4.11-7.203-4.11V8.91l7.203-4.111m0-1.007-8.003 4.614v9.227l8.003 4.614 8.004-4.614V8.406l-8.004-4.614Z"/><path fill="#CECECE" fill-rule="nonzero" d="m1178.58 4.799 7.204 4.11v8.221l-7.203 4.11-7.203-4.11V8.91l7.203-4.111m0-1.007-8.004 4.614v9.227l8.004 4.614 8.003-4.614V8.406l-8.003-4.614Z"/><path fill="#CECECE" fill-rule="nonzero" d="m1193.787 4.799 7.203 4.11v8.221l-7.203 4.11-7.203-4.11V8.91l7.203-4.111m0-1.007-8.003 4.614v9.227l8.003 4.614 8.004-4.614V8.406l-8.004-4.614Z"/><path fill="#CECECE" fill-rule="nonzero" d="m1208.994 4.799 7.203 4.11v8.221l-7.203 4.11-7.203-4.11V8.91l7.203-4.111m0-1.007-8.004 4.614v9.227l8.004 4.614 8.003-4.614V8.406l-8.003-4.614Z"/><path fill="#CECECE" fill-rule="nonzero" d="m1224.2 4.799 7.204 4.11v8.221l-7.204 4.11-7.203-4.11V8.91l7.203-4.111m0-1.007-8.003 4.614v9.227l8.003 4.614 8.004-4.614V8.406l-8.004-4.614Z"/><path fill="#CECECE" fill-rule="nonzero" d="m1239.407 4.799 7.203 4.11v8.221l-7.203 4.11-7.203-4.11V8.91l7.203-4.111m0-1.007-8.003 4.614v9.227l8.003 4.614 8.003-4.614V8.406l-8.003-4.614Z"/><path fill="#CECECE" fill-rule="nonzero" d="m1254.614 4.799 7.203 4.11v8.221l-7.203 4.11-7.204-4.11V8.91l7.204-4.111m0-1.007-8.004 4.614v9.227l8.004 4.614 8.003-4.614V8.406l-8.003-4.614Z"/><g fill="#CECECE" fill-rule="nonzero"><path d="m973.293 18.22 7.203 4.111v8.221l-7.203 4.11-7.203-4.11v-8.221l7.203-4.11m0-.923-8.004 4.614v9.227l8.004 4.614 8.003-4.614v-9.227l-8.003-4.614Z"/><path d="m988.5 18.22 7.202 4.111v8.221l-7.203 4.11-7.203-4.11v-8.221l7.203-4.11m0-.923-8.003 4.614v9.227l8.003 4.614 8.004-4.614v-9.227l-8.004-4.614Z"/><path d="m1003.706 18.22 7.203 4.111v8.221l-7.203 4.11-7.203-4.11v-8.221l7.203-4.11m0-.923-8.004 4.614v9.227l8.004 4.614 8.003-4.614v-9.227l-8.003-4.614Z"/><path d="m1018.912 18.22 7.203 4.111v8.221l-7.203 4.11-7.203-4.11v-8.221l7.203-4.11m0-.923-8.003 4.614v9.227l8.003 4.614 8.004-4.614v-9.227l-8.004-4.614Z"/><path d="m1034.119 18.22 7.203 4.111v8.221l-7.203 4.11-7.203-4.11v-8.221l7.203-4.11m0-.923-8.004 4.614v9.227l8.004 4.614 8.003-4.614v-9.227l-8.003-4.614Z"/><path d="m1049.325 18.22 7.203 4.111v8.221l-7.203 4.11-7.203-4.11v-8.221l7.203-4.11m0-.923-8.003 4.614v9.227l8.003 4.614 8.004-4.614v-9.227l-8.004-4.614Z"/><path d="m1064.532 18.22 7.203 4.111v8.221l-7.203 4.11-7.203-4.11v-8.221l7.203-4.11m0-.923-8.004 4.614v9.227l8.004 4.614 8.003-4.614v-9.227l-8.003-4.614Z"/><path d="m1079.738 18.22 7.203 4.111v8.221l-7.203 4.11-7.203-4.11v-8.221l7.203-4.11m0-.923-8.003 4.614v9.227l8.003 4.614 8.004-4.614v-9.227l-8.004-4.614Z"/><path d="m1094.945 18.22 7.203 4.111v8.221l-7.203 4.11-7.203-4.11v-8.221l7.203-4.11m0-.923-8.004 4.614v9.227l8.004 4.614 8.003-4.614v-9.227l-8.003-4.614Z"/><path d="m1110.151 18.22 7.203 4.111v8.221l-7.203 4.11-7.203-4.11v-8.221l7.203-4.11m0-.923-8.003 4.614v9.227l8.003 4.614 8.004-4.614v-9.227l-8.004-4.614Z"/><path d="m1125.358 18.22 7.203 4.111v8.221l-7.203 4.11-7.203-4.11v-8.221l7.203-4.11m0-.923-8.004 4.614v9.227l8.004 4.614 8.003-4.614v-9.227l-8.003-4.614Z"/><path d="m1140.564 18.22 7.204 4.111v8.221l-7.204 4.11-7.203-4.11v-8.221l7.203-4.11m0-.923-8.003 4.614v9.227l8.003 4.614 8.004-4.614v-9.227l-8.004-4.614Z"/><path d="m1155.771 18.22 7.203 4.111v8.221l-7.203 4.11-7.203-4.11v-8.221l7.203-4.11m0-.923-8.003 4.614v9.227l8.003 4.614 8.003-4.614v-9.227l-8.003-4.614Z"/><path d="m1170.978 18.22 7.203 4.111v8.221l-7.203 4.11-7.204-4.11v-8.221l7.204-4.11m0-.923-8.004 4.614v9.227l8.004 4.614 8.003-4.614v-9.227l-8.003-4.614Z"/><path d="m1186.184 18.22 7.203 4.111v8.221l-7.203 4.11-7.203-4.11v-8.221l7.203-4.11m0-.923-8.003 4.614v9.227l8.003 4.614 8.003-4.614v-9.227l-8.003-4.614Z"/><path d="m1201.39 18.22 7.204 4.111v8.221l-7.203 4.11-7.204-4.11v-8.221l7.204-4.11m0-.923-8.004 4.614v9.227l8.004 4.614 8.003-4.614v-9.227l-8.003-4.614Z"/><path d="m1216.597 18.22 7.203 4.111v8.221l-7.203 4.11-7.203-4.11v-8.221l7.203-4.11m0-.923-8.003 4.614v9.227l8.003 4.614 8.004-4.614v-9.227l-8.004-4.614Z"/><path d="m1231.804 18.22 7.203 4.111v8.221l-7.203 4.11-7.203-4.11v-8.221l7.203-4.11m0-.923-8.004 4.614v9.227l8.004 4.614 8.003-4.614v-9.227l-8.003-4.614Z"/><path d="m1247.01 18.22 7.203 4.111v8.221l-7.203 4.11-7.203-4.11v-8.221l7.203-4.11m0-.923-8.003 4.614v9.227l8.003 4.614 8.004-4.614v-9.227l-8.004-4.614Z"/><path d="m1262.217 18.22 7.203 4.111v8.221l-7.203 4.11-7.203-4.11v-8.221l7.203-4.11m0-.923-8.004 4.614v9.227l8.004 4.614 8.003-4.614v-9.227l-8.003-4.614Z"/></g><g fill="#CECECE" fill-rule="nonzero"><path d="m965.69 31.81 7.203 4.11v8.222l-7.204 4.11-7.203-4.11V35.92l7.203-4.11m0-.923-8.003 4.613v9.228l8.003 4.614 8.004-4.614v-9.228l-8.004-4.613Z"/><path d="m980.896 31.81 7.203 4.11v8.222l-7.203 4.11-7.203-4.11V35.92l7.203-4.11m0-.923-8.003 4.613v9.228l8.003 4.614 8.003-4.614v-9.228l-8.003-4.613Z"/><path d="m996.102 31.81 7.204 4.11v8.222l-7.204 4.11-7.203-4.11V35.92l7.203-4.11m0-.923L988.1 35.5v9.228l8.003 4.614 8.004-4.614v-9.228l-8.004-4.613Z"/><path d="m1011.309 31.81 7.203 4.11v8.222l-7.203 4.11-7.203-4.11V35.92l7.203-4.11m0-.923-8.003 4.613v9.228l8.003 4.614 8.003-4.614v-9.228l-8.003-4.613Z"/><path d="m1026.516 31.81 7.203 4.11v8.222l-7.203 4.11-7.204-4.11V35.92l7.204-4.11m0-.923-8.004 4.613v9.228l8.004 4.614 8.003-4.614v-9.228l-8.003-4.613Z"/><path d="m1041.722 31.81 7.203 4.11v8.222l-7.203 4.11-7.203-4.11V35.92l7.203-4.11m0-.923-8.003 4.613v9.228l8.003 4.614 8.004-4.614v-9.228l-8.004-4.613Z"/><path d="m1056.929 31.81 7.203 4.11v8.222l-7.203 4.11-7.203-4.11V35.92l7.203-4.11m0-.923-8.004 4.613v9.228l8.004 4.614 8.003-4.614v-9.228l-8.003-4.613Z"/><path d="m1072.135 31.81 7.203 4.11v8.222l-7.203 4.11-7.203-4.11V35.92l7.203-4.11m0-.923-8.003 4.613v9.228l8.003 4.614 8.004-4.614v-9.228l-8.004-4.613Z"/><path d="m1087.342 31.81 7.203 4.11v8.222l-7.203 4.11-7.203-4.11V35.92l7.203-4.11m0-.923-8.004 4.613v9.228l8.004 4.614 8.003-4.614v-9.228l-8.003-4.613Z"/><path d="m1102.548 31.81 7.203 4.11v8.222l-7.203 4.11-7.203-4.11V35.92l7.203-4.11m0-.923-8.003 4.613v9.228l8.003 4.614 8.004-4.614v-9.228l-8.004-4.613Z"/><path d="m1117.755 31.81 7.203 4.11v8.222l-7.203 4.11-7.203-4.11V35.92l7.203-4.11m0-.923-8.004 4.613v9.228l8.004 4.614 8.003-4.614v-9.228l-8.003-4.613Z"/><path d="m1132.961 31.81 7.203 4.11v8.222l-7.203 4.11-7.203-4.11V35.92l7.203-4.11m0-.923-8.003 4.613v9.228l8.003 4.614 8.004-4.614v-9.228l-8.004-4.613Z"/><path d="m1148.168 31.81 7.203 4.11v8.222l-7.203 4.11-7.203-4.11V35.92l7.203-4.11m0-.923-8.004 4.613v9.228l8.004 4.614 8.003-4.614v-9.228l-8.003-4.613Z"/><path d="m1163.374 31.81 7.203 4.11v8.222l-7.203 4.11-7.203-4.11V35.92l7.203-4.11m0-.923-8.003 4.613v9.228l8.003 4.614 8.004-4.614v-9.228l-8.004-4.613Z"/><path d="m1178.58 31.81 7.204 4.11v8.222l-7.203 4.11-7.203-4.11V35.92l7.203-4.11m0-.923-8.004 4.613v9.228l8.004 4.614 8.003-4.614v-9.228l-8.003-4.613Z"/><path d="m1193.787 31.81 7.203 4.11v8.222l-7.203 4.11-7.203-4.11V35.92l7.203-4.11m0-.923-8.003 4.613v9.228l8.003 4.614 8.004-4.614v-9.228l-8.004-4.613Z"/><path d="m1208.994 31.81 7.203 4.11v8.222l-7.203 4.11-7.203-4.11V35.92l7.203-4.11m0-.923-8.004 4.613v9.228l8.004 4.614 8.003-4.614v-9.228l-8.003-4.613Z"/><path d="m1224.2 31.81 7.204 4.11v8.222l-7.204 4.11-7.203-4.11V35.92l7.203-4.11m0-.923-8.003 4.613v9.228l8.003 4.614 8.004-4.614v-9.228l-8.004-4.613Z"/><path d="m1239.407 31.81 7.203 4.11v8.222l-7.203 4.11-7.203-4.11V35.92l7.203-4.11m0-.923-8.003 4.613v9.228l8.003 4.614 8.003-4.614v-9.228l-8.003-4.613Z"/><path d="m1254.614 31.81 7.203 4.11v8.222l-7.203 4.11-7.204-4.11V35.92l7.204-4.11m0-.923-8.004 4.613v9.228l8.004 4.614 8.003-4.614v-9.228l-8.003-4.613Z"/></g><g fill="#CECECE" fill-rule="nonzero"><path d="m973.293 45.316 7.203 4.11v8.222l-7.203 4.11-7.203-4.11v-8.221l7.203-4.11m0-1.007-8.004 4.613v9.228l8.004 4.614 8.003-4.614v-9.228l-8.003-4.613Z"/><path d="m988.5 45.316 7.202 4.11v8.222l-7.203 4.11-7.203-4.11v-8.221l7.203-4.11m0-1.007-8.003 4.613v9.228l8.003 4.614 8.004-4.614v-9.228l-8.004-4.613Z"/><path d="m1003.706 45.316 7.203 4.11v8.222l-7.203 4.11-7.203-4.11v-8.221l7.203-4.11m0-1.007-8.004 4.613v9.228l8.004 4.614 8.003-4.614v-9.228l-8.003-4.613Z"/><path d="m1018.912 45.316 7.203 4.11v8.222l-7.203 4.11-7.203-4.11v-8.221l7.203-4.11m0-1.007-8.003 4.613v9.228l8.003 4.614 8.004-4.614v-9.228l-8.004-4.613Z"/><path d="m1034.119 45.316 7.203 4.11v8.222l-7.203 4.11-7.203-4.11v-8.221l7.203-4.11m0-1.007-8.004 4.613v9.228l8.004 4.614 8.003-4.614v-9.228l-8.003-4.613Z"/><path d="m1049.325 45.316 7.203 4.11v8.222l-7.203 4.11-7.203-4.11v-8.221l7.203-4.11m0-1.007-8.003 4.613v9.228l8.003 4.614 8.004-4.614v-9.228l-8.004-4.613Z"/><path d="m1064.532 45.316 7.203 4.11v8.222l-7.203 4.11-7.203-4.11v-8.221l7.203-4.11m0-1.007-8.004 4.613v9.228l8.004 4.614 8.003-4.614v-9.228l-8.003-4.613Z"/><path d="m1079.738 45.316 7.203 4.11v8.222l-7.203 4.11-7.203-4.11v-8.221l7.203-4.11m0-1.007-8.003 4.613v9.228l8.003 4.614 8.004-4.614v-9.228l-8.004-4.613Z"/><path d="m1094.945 45.316 7.203 4.11v8.222l-7.203 4.11-7.203-4.11v-8.221l7.203-4.11m0-1.007-8.004 4.613v9.228l8.004 4.614 8.003-4.614v-9.228l-8.003-4.613Z"/><path d="m1110.151 45.316 7.203 4.11v8.222l-7.203 4.11-7.203-4.11v-8.221l7.203-4.11m0-1.007-8.003 4.613v9.228l8.003 4.614 8.004-4.614v-9.228l-8.004-4.613Z"/><path d="m1125.358 45.316 7.203 4.11v8.222l-7.203 4.11-7.203-4.11v-8.221l7.203-4.11m0-1.007-8.004 4.613v9.228l8.004 4.614 8.003-4.614v-9.228l-8.003-4.613Z"/><path d="m1140.564 45.316 7.204 4.11v8.222l-7.204 4.11-7.203-4.11v-8.221l7.203-4.11m0-1.007-8.003 4.613v9.228l8.003 4.614 8.004-4.614v-9.228l-8.004-4.613Z"/><path d="m1155.771 45.316 7.203 4.11v8.222l-7.203 4.11-7.203-4.11v-8.221l7.203-4.11m0-1.007-8.003 4.613v9.228l8.003 4.614 8.003-4.614v-9.228l-8.003-4.613Z"/><path d="m1170.978 45.316 7.203 4.11v8.222l-7.203 4.11-7.204-4.11v-8.221l7.204-4.11m0-1.007-8.004 4.613v9.228l8.004 4.614 8.003-4.614v-9.228l-8.003-4.613Z"/><path d="m1186.184 45.316 7.203 4.11v8.222l-7.203 4.11-7.203-4.11v-8.221l7.203-4.11m0-1.007-8.003 4.613v9.228l8.003 4.614 8.003-4.614v-9.228l-8.003-4.613Z"/><path d="m1201.39 45.316 7.204 4.11v8.222l-7.203 4.11-7.204-4.11v-8.221l7.204-4.11m0-1.007-8.004 4.613v9.228l8.004 4.614 8.003-4.614v-9.228l-8.003-4.613Z"/><path d="m1216.597 45.316 7.203 4.11v8.222l-7.203 4.11-7.203-4.11v-8.221l7.203-4.11m0-1.007-8.003 4.613v9.228l8.003 4.614 8.004-4.614v-9.228l-8.004-4.613Z"/><path d="m1231.804 45.316 7.203 4.11v8.222l-7.203 4.11-7.203-4.11v-8.221l7.203-4.11m0-1.007-8.004 4.613v9.228l8.004 4.614 8.003-4.614v-9.228l-8.003-4.613Z"/><path d="m1247.01 45.316 7.203 4.11v8.222l-7.203 4.11-7.203-4.11v-8.221l7.203-4.11m0-1.007-8.003 4.613v9.228l8.003 4.614 8.004-4.614v-9.228l-8.004-4.613Z"/><path d="m1262.217 45.316 7.203 4.11v8.222l-7.203 4.11-7.203-4.11v-8.221l7.203-4.11m0-1.007-8.004 4.613v9.228l8.004 4.614 8.003-4.614v-9.228l-8.003-4.613Z"/></g><g fill="#CECECE" fill-rule="nonzero"><path d="m965.69 58.906 7.203 4.11v8.221l-7.204 4.111-7.203-4.11v-8.222l7.203-4.11m0-1.007-8.003 4.614v9.228l8.003 4.614 8.004-4.614v-9.228l-8.004-4.614Z"/><path d="m980.896 58.906 7.203 4.11v8.221l-7.203 4.111-7.203-4.11v-8.222l7.203-4.11m0-1.007-8.003 4.614v9.228l8.003 4.614 8.003-4.614v-9.228l-8.003-4.614Z"/><path d="m996.102 58.906 7.204 4.11v8.221l-7.204 4.111-7.203-4.11v-8.222l7.203-4.11m0-1.007-8.003 4.614v9.228l8.003 4.614 8.004-4.614v-9.228l-8.004-4.614Z"/><path d="m1011.309 58.906 7.203 4.11v8.221l-7.203 4.111-7.203-4.11v-8.222l7.203-4.11m0-1.007-8.003 4.614v9.228l8.003 4.614 8.003-4.614v-9.228l-8.003-4.614Z"/><path d="m1026.516 58.906 7.203 4.11v8.221l-7.203 4.111-7.204-4.11v-8.222l7.204-4.11m0-1.007-8.004 4.614v9.228l8.004 4.614 8.003-4.614v-9.228l-8.003-4.614Z"/><path d="m1041.722 58.906 7.203 4.11v8.221l-7.203 4.111-7.203-4.11v-8.222l7.203-4.11m0-1.007-8.003 4.614v9.228l8.003 4.614 8.004-4.614v-9.228l-8.004-4.614Z"/><path d="m1056.929 58.906 7.203 4.11v8.221l-7.203 4.111-7.203-4.11v-8.222l7.203-4.11m0-1.007-8.004 4.614v9.228l8.004 4.614 8.003-4.614v-9.228l-8.003-4.614Z"/><path d="m1072.135 58.906 7.203 4.11v8.221l-7.203 4.111-7.203-4.11v-8.222l7.203-4.11m0-1.007-8.003 4.614v9.228l8.003 4.614 8.004-4.614v-9.228l-8.004-4.614Z"/><path d="m1087.342 58.906 7.203 4.11v8.221l-7.203 4.111-7.203-4.11v-8.222l7.203-4.11m0-1.007-8.004 4.614v9.228l8.004 4.614 8.003-4.614v-9.228l-8.003-4.614Z"/><path d="m1102.548 58.906 7.203 4.11v8.221l-7.203 4.111-7.203-4.11v-8.222l7.203-4.11m0-1.007-8.003 4.614v9.228l8.003 4.614 8.004-4.614v-9.228l-8.004-4.614Z"/><path d="m1117.755 58.906 7.203 4.11v8.221l-7.203 4.111-7.203-4.11v-8.222l7.203-4.11m0-1.007-8.004 4.614v9.228l8.004 4.614 8.003-4.614v-9.228l-8.003-4.614Z"/><path d="m1132.961 58.906 7.203 4.11v8.221l-7.203 4.111-7.203-4.11v-8.222l7.203-4.11m0-1.007-8.003 4.614v9.228l8.003 4.614 8.004-4.614v-9.228l-8.004-4.614Z"/><path d="m1148.168 58.906 7.203 4.11v8.221l-7.203 4.111-7.203-4.11v-8.222l7.203-4.11m0-1.007-8.004 4.614v9.228l8.004 4.614 8.003-4.614v-9.228l-8.003-4.614Z"/><path d="m1163.374 58.906 7.203 4.11v8.221l-7.203 4.111-7.203-4.11v-8.222l7.203-4.11m0-1.007-8.003 4.614v9.228l8.003 4.614 8.004-4.614v-9.228l-8.004-4.614Z"/><path d="m1178.58 58.906 7.204 4.11v8.221l-7.203 4.111-7.203-4.11v-8.222l7.203-4.11m0-1.007-8.004 4.614v9.228l8.004 4.614 8.003-4.614v-9.228l-8.003-4.614Z"/><path d="m1193.787 58.906 7.203 4.11v8.221l-7.203 4.111-7.203-4.11v-8.222l7.203-4.11m0-1.007-8.003 4.614v9.228l8.003 4.614 8.004-4.614v-9.228l-8.004-4.614Z"/><path d="m1208.994 58.906 7.203 4.11v8.221l-7.203 4.111-7.203-4.11v-8.222l7.203-4.11m0-1.007-8.004 4.614v9.228l8.004 4.614 8.003-4.614v-9.228l-8.003-4.614Z"/><path d="m1224.2 58.906 7.204 4.11v8.221l-7.204 4.111-7.203-4.11v-8.222l7.203-4.11m0-1.007-8.003 4.614v9.228l8.003 4.614 8.004-4.614v-9.228L1224.2 57.9Z"/><path d="m1239.407 58.906 7.203 4.11v8.221l-7.203 4.111-7.203-4.11v-8.222l7.203-4.11m0-1.007-8.003 4.614v9.228l8.003 4.614 8.003-4.614v-9.228l-8.003-4.614Z"/><path d="m1254.614 58.906 7.203 4.11v8.221l-7.203 4.111-7.204-4.11v-8.222l7.204-4.11m0-1.007-8.004 4.614v9.228l8.004 4.614 8.003-4.614v-9.228l-8.003-4.614Z"/></g><g fill="#CECECE" fill-rule="nonzero"><path d="m973.293 72.328 7.203 4.11v8.221l-7.203 4.111-7.203-4.11v-8.222l7.203-4.11m0-.923-8.004 4.614v9.228l8.004 4.614 8.003-4.614v-9.228l-8.003-4.614Z"/><path d="m988.5 72.328 7.202 4.11v8.221L988.5 88.77l-7.203-4.11v-8.222l7.203-4.11m0-.923-8.003 4.614v9.228l8.003 4.614 8.004-4.614v-9.228l-8.004-4.614Z"/><path d="m1003.706 72.328 7.203 4.11v8.221l-7.203 4.111-7.203-4.11v-8.222l7.203-4.11m0-.923-8.004 4.614v9.228l8.004 4.614 8.003-4.614v-9.228l-8.003-4.614Z"/><path d="m1018.912 72.328 7.203 4.11v8.221l-7.203 4.111-7.203-4.11v-8.222l7.203-4.11m0-.923-8.003 4.614v9.228l8.003 4.614 8.004-4.614v-9.228l-8.004-4.614Z"/><path d="m1034.119 72.328 7.203 4.11v8.221l-7.203 4.111-7.203-4.11v-8.222l7.203-4.11m0-.923-8.004 4.614v9.228l8.004 4.614 8.003-4.614v-9.228l-8.003-4.614Z"/><path d="m1049.325 72.328 7.203 4.11v8.221l-7.203 4.111-7.203-4.11v-8.222l7.203-4.11m0-.923-8.003 4.614v9.228l8.003 4.614 8.004-4.614v-9.228l-8.004-4.614Z"/><path d="m1064.532 72.328 7.203 4.11v8.221l-7.203 4.111-7.203-4.11v-8.222l7.203-4.11m0-.923-8.004 4.614v9.228l8.004 4.614 8.003-4.614v-9.228l-8.003-4.614Z"/><path d="m1079.738 72.328 7.203 4.11v8.221l-7.203 4.111-7.203-4.11v-8.222l7.203-4.11m0-.923-8.003 4.614v9.228l8.003 4.614 8.004-4.614v-9.228l-8.004-4.614Z"/><path d="m1094.945 72.328 7.203 4.11v8.221l-7.203 4.111-7.203-4.11v-8.222l7.203-4.11m0-.923-8.004 4.614v9.228l8.004 4.614 8.003-4.614v-9.228l-8.003-4.614Z"/><path d="m1110.151 72.328 7.203 4.11v8.221l-7.203 4.111-7.203-4.11v-8.222l7.203-4.11m0-.923-8.003 4.614v9.228l8.003 4.614 8.004-4.614v-9.228l-8.004-4.614Z"/><path d="m1125.358 72.328 7.203 4.11v8.221l-7.203 4.111-7.203-4.11v-8.222l7.203-4.11m0-.923-8.004 4.614v9.228l8.004 4.614 8.003-4.614v-9.228l-8.003-4.614Z"/><path d="m1140.564 72.328 7.204 4.11v8.221l-7.204 4.111-7.203-4.11v-8.222l7.203-4.11m0-.923-8.003 4.614v9.228l8.003 4.614 8.004-4.614v-9.228l-8.004-4.614Z"/><path d="m1155.771 72.328 7.203 4.11v8.221l-7.203 4.111-7.203-4.11v-8.222l7.203-4.11m0-.923-8.003 4.614v9.228l8.003 4.614 8.003-4.614v-9.228l-8.003-4.614Z"/><path d="m1170.978 72.328 7.203 4.11v8.221l-7.203 4.111-7.204-4.11v-8.222l7.204-4.11m0-.923-8.004 4.614v9.228l8.004 4.614 8.003-4.614v-9.228l-8.003-4.614Z"/><path d="m1186.184 72.328 7.203 4.11v8.221l-7.203 4.111-7.203-4.11v-8.222l7.203-4.11m0-.923-8.003 4.614v9.228l8.003 4.614 8.003-4.614v-9.228l-8.003-4.614Z"/><path d="m1201.39 72.328 7.204 4.11v8.221l-7.203 4.111-7.204-4.11v-8.222l7.204-4.11m0-.923-8.004 4.614v9.228l8.004 4.614 8.003-4.614v-9.228l-8.003-4.614Z"/><path d="m1216.597 72.328 7.203 4.11v8.221l-7.203 4.111-7.203-4.11v-8.222l7.203-4.11m0-.923-8.003 4.614v9.228l8.003 4.614 8.004-4.614v-9.228l-8.004-4.614Z"/><path d="m1231.804 72.328 7.203 4.11v8.221l-7.203 4.111-7.203-4.11v-8.222l7.203-4.11m0-.923-8.004 4.614v9.228l8.004 4.614 8.003-4.614v-9.228l-8.003-4.614Z"/><path d="m1247.01 72.328 7.203 4.11v8.221l-7.203 4.111-7.203-4.11v-8.222l7.203-4.11m0-.923-8.003 4.614v9.228l8.003 4.614 8.004-4.614v-9.228l-8.004-4.614Z"/><path d="m1262.217 72.328 7.203 4.11v8.221l-7.203 4.111-7.203-4.11v-8.222l7.203-4.11m0-.923-8.004 4.614v9.228l8.004 4.614 8.003-4.614v-9.228l-8.003-4.614Z"/></g><g fill="#CECECE" fill-rule="nonzero"><path d="m965.69 85.918 7.203 4.11v8.221l-7.204 4.11-7.203-4.11v-8.137l7.203-4.194m0-.923-8.003 4.614v9.227l8.003 4.614 8.004-4.614V89.61l-8.004-4.614Z"/><path d="m980.896 85.918 7.203 4.11v8.221l-7.203 4.11-7.203-4.11v-8.137l7.203-4.194m0-.923-8.003 4.614v9.227l8.003 4.614 8.003-4.614V89.61l-8.003-4.614Z"/><path d="m996.102 85.918 7.204 4.11v8.221l-7.204 4.11-7.203-4.11v-8.137l7.203-4.194m0-.923-8.003 4.614v9.227l8.003 4.614 8.004-4.614V89.61l-8.004-4.614Z"/><path d="m1011.309 85.918 7.203 4.11v8.221l-7.203 4.11-7.203-4.11v-8.137l7.203-4.194m0-.923-8.003 4.614v9.227l8.003 4.614 8.003-4.614V89.61l-8.003-4.614Z"/><path d="m1026.516 85.918 7.203 4.11v8.221l-7.203 4.11-7.204-4.11v-8.137l7.204-4.194m0-.923-8.004 4.614v9.227l8.004 4.614 8.003-4.614V89.61l-8.003-4.614Z"/><path d="m1041.722 85.918 7.203 4.11v8.221l-7.203 4.11-7.203-4.11v-8.137l7.203-4.194m0-.923-8.003 4.614v9.227l8.003 4.614 8.004-4.614V89.61l-8.004-4.614Z"/><path d="m1056.929 85.918 7.203 4.11v8.221l-7.203 4.11-7.203-4.11v-8.137l7.203-4.194m0-.923-8.004 4.614v9.227l8.004 4.614 8.003-4.614V89.61l-8.003-4.614Z"/><path d="m1072.135 85.918 7.203 4.11v8.221l-7.203 4.11-7.203-4.11v-8.137l7.203-4.194m0-.923-8.003 4.614v9.227l8.003 4.614 8.004-4.614V89.61l-8.004-4.614Z"/><path d="m1087.342 85.918 7.203 4.11v8.221l-7.203 4.11-7.203-4.11v-8.137l7.203-4.194m0-.923-8.004 4.614v9.227l8.004 4.614 8.003-4.614V89.61l-8.003-4.614Z"/><path d="m1102.548 85.918 7.203 4.11v8.221l-7.203 4.11-7.203-4.11v-8.137l7.203-4.194m0-.923-8.003 4.614v9.227l8.003 4.614 8.004-4.614V89.61l-8.004-4.614Z"/><path d="m1117.755 85.918 7.203 4.11v8.221l-7.203 4.11-7.203-4.11v-8.137l7.203-4.194m0-.923-8.004 4.614v9.227l8.004 4.614 8.003-4.614V89.61l-8.003-4.614Z"/><path d="m1132.961 85.918 7.203 4.11v8.221l-7.203 4.11-7.203-4.11v-8.137l7.203-4.194m0-.923-8.003 4.614v9.227l8.003 4.614 8.004-4.614V89.61l-8.004-4.614Z"/><path d="m1148.168 85.918 7.203 4.11v8.221l-7.203 4.11-7.203-4.11v-8.137l7.203-4.194m0-.923-8.004 4.614v9.227l8.004 4.614 8.003-4.614V89.61l-8.003-4.614Z"/><path d="m1163.374 85.918 7.203 4.11v8.221l-7.203 4.11-7.203-4.11v-8.137l7.203-4.194m0-.923-8.003 4.614v9.227l8.003 4.614 8.004-4.614V89.61l-8.004-4.614Z"/><path d="m1178.58 85.918 7.204 4.11v8.221l-7.203 4.11-7.203-4.11v-8.137l7.203-4.194m0-.923-8.004 4.614v9.227l8.004 4.614 8.003-4.614V89.61l-8.003-4.614Z"/><path d="m1193.787 85.918 7.203 4.11v8.221l-7.203 4.11-7.203-4.11v-8.137l7.203-4.194m0-.923-8.003 4.614v9.227l8.003 4.614 8.004-4.614V89.61l-8.004-4.614Z"/><path d="m1208.994 85.918 7.203 4.11v8.221l-7.203 4.11-7.203-4.11v-8.137l7.203-4.194m0-.923-8.004 4.614v9.227l8.004 4.614 8.003-4.614V89.61l-8.003-4.614Z"/><path d="m1224.2 85.918 7.204 4.11v8.221l-7.204 4.11-7.203-4.11v-8.137l7.203-4.194m0-.923-8.003 4.614v9.227l8.003 4.614 8.004-4.614V89.61l-8.004-4.614Z"/><path d="m1239.407 85.918 7.203 4.11v8.221l-7.203 4.11-7.203-4.11v-8.137l7.203-4.194m0-.923-8.003 4.614v9.227l8.003 4.614 8.003-4.614V89.61l-8.003-4.614Z"/><path d="m1254.614 85.918 7.203 4.11v8.221l-7.203 4.11-7.204-4.11v-8.137l7.204-4.194m0-.923-8.004 4.614v9.227l8.004 4.614 8.003-4.614V89.61l-8.003-4.614Z"/></g><g fill="#CECECE" fill-rule="nonzero"><path d="m973.293 99.424 7.203 4.11v8.221l-7.203 4.11-7.203-4.11v-8.22l7.203-4.111m0-1.007-8.004 4.614v9.227l8.004 4.614 8.003-4.614v-9.227l-8.003-4.614Z"/><path d="m988.5 99.424 7.202 4.11v8.221l-7.203 4.11-7.203-4.11v-8.22l7.203-4.111m0-1.007-8.003 4.614v9.227l8.003 4.614 8.004-4.614v-9.227l-8.004-4.614Z"/><path d="m1003.706 99.424 7.203 4.11v8.221l-7.203 4.11-7.203-4.11v-8.22l7.203-4.111m0-1.007-8.004 4.614v9.227l8.004 4.614 8.003-4.614v-9.227l-8.003-4.614Z"/><path d="m1018.912 99.424 7.203 4.11v8.221l-7.203 4.11-7.203-4.11v-8.22l7.203-4.111m0-1.007-8.003 4.614v9.227l8.003 4.614 8.004-4.614v-9.227l-8.004-4.614Z"/><path d="m1034.119 99.424 7.203 4.11v8.221l-7.203 4.11-7.203-4.11v-8.22l7.203-4.111m0-1.007-8.004 4.614v9.227l8.004 4.614 8.003-4.614v-9.227l-8.003-4.614Z"/><path d="m1049.325 99.424 7.203 4.11v8.221l-7.203 4.11-7.203-4.11v-8.22l7.203-4.111m0-1.007-8.003 4.614v9.227l8.003 4.614 8.004-4.614v-9.227l-8.004-4.614Z"/><path d="m1064.532 99.424 7.203 4.11v8.221l-7.203 4.11-7.203-4.11v-8.22l7.203-4.111m0-1.007-8.004 4.614v9.227l8.004 4.614 8.003-4.614v-9.227l-8.003-4.614Z"/><path d="m1079.738 99.424 7.203 4.11v8.221l-7.203 4.11-7.203-4.11v-8.22l7.203-4.111m0-1.007-8.003 4.614v9.227l8.003 4.614 8.004-4.614v-9.227l-8.004-4.614Z"/><path d="m1094.945 99.424 7.203 4.11v8.221l-7.203 4.11-7.203-4.11v-8.22l7.203-4.111m0-1.007-8.004 4.614v9.227l8.004 4.614 8.003-4.614v-9.227l-8.003-4.614Z"/><path d="m1110.151 99.424 7.203 4.11v8.221l-7.203 4.11-7.203-4.11v-8.22l7.203-4.111m0-1.007-8.003 4.614v9.227l8.003 4.614 8.004-4.614v-9.227l-8.004-4.614Z"/><path d="m1125.358 99.424 7.203 4.11v8.221l-7.203 4.11-7.203-4.11v-8.22l7.203-4.111m0-1.007-8.004 4.614v9.227l8.004 4.614 8.003-4.614v-9.227l-8.003-4.614Z"/><path d="m1140.564 99.424 7.204 4.11v8.221l-7.204 4.11-7.203-4.11v-8.22l7.203-4.111m0-1.007-8.003 4.614v9.227l8.003 4.614 8.004-4.614v-9.227l-8.004-4.614Z"/><path d="m1155.771 99.424 7.203 4.11v8.221l-7.203 4.11-7.203-4.11v-8.22l7.203-4.111m0-1.007-8.003 4.614v9.227l8.003 4.614 8.003-4.614v-9.227l-8.003-4.614Z"/><path d="m1170.978 99.424 7.203 4.11v8.221l-7.203 4.11-7.204-4.11v-8.22l7.204-4.111m0-1.007-8.004 4.614v9.227l8.004 4.614 8.003-4.614v-9.227l-8.003-4.614Z"/><path d="m1186.184 99.424 7.203 4.11v8.221l-7.203 4.11-7.203-4.11v-8.22l7.203-4.111m0-1.007-8.003 4.614v9.227l8.003 4.614 8.003-4.614v-9.227l-8.003-4.614Z"/><path d="m1201.39 99.424 7.204 4.11v8.221l-7.203 4.11-7.204-4.11v-8.22l7.204-4.111m0-1.007-8.004 4.614v9.227l8.004 4.614 8.003-4.614v-9.227l-8.003-4.614Z"/><path d="m1216.597 99.424 7.203 4.11v8.221l-7.203 4.11-7.203-4.11v-8.22l7.203-4.111m0-1.007-8.003 4.614v9.227l8.003 4.614 8.004-4.614v-9.227l-8.004-4.614Z"/><path d="m1231.804 99.424 7.203 4.11v8.221l-7.203 4.11-7.203-4.11v-8.22l7.203-4.111m0-1.007-8.004 4.614v9.227l8.004 4.614 8.003-4.614v-9.227l-8.003-4.614Z"/><path d="m1247.01 99.424 7.203 4.11v8.221l-7.203 4.11-7.203-4.11v-8.22l7.203-4.111m0-1.007-8.003 4.614v9.227l8.003 4.614 8.004-4.614v-9.227l-8.004-4.614Z"/><path d="m1262.217 99.424 7.203 4.11v8.221l-7.203 4.11-7.203-4.11v-8.22l7.203-4.111m0-1.007-8.004 4.614v9.227l8.004 4.614 8.003-4.614v-9.227l-8.003-4.614Z"/></g><path stroke="#FFF" stroke-width="7.89" d="M957.686 117.257V0h309.627v117.257"/><path stroke="#FFF" stroke-width="7.89" d="M957.686 117.257V0h309.626v117.257"/></g><g><g transform="translate(615 115)"><path stroke="#FFF" stroke-width="5" d="m965.071 2.5 39.93 217.962H2.937L38.258 2.53 965.07 2.5Z"/><path stroke="#FFF" stroke-width="5" d="m747.755 2.505 9.746 86.73H239.678l8.089-86.73h499.988ZM295 221.527c131.052 79.297 268.303 79.297 411.754 0"/><ellipse cx="496.894" cy="149.948" fill="#FFF" rx="11.261" ry="5.796"/></g><g transform="translate(134 972)"><path fill="#FFF" d="M0 192.492h1959v6.867H0z"/><ellipse cx="980.458" cy="196.138" fill="#FFF" rx="26.32" ry="22.904"/><ellipse cx="980.303" cy="203.5" stroke="#FFF" stroke-width="8" rx="235.696" ry="199.5"/></g><path stroke="#FFF" stroke-width="4" d="M435 133c13.398-1.547 21.325-6.225 23.782-14.032M1795 132.648c-7.925-.304-12.976-1.157-15.152-2.558-7.144-4.601-7.592-12.09-7.592-12.09"/><g fill="#FFF"><path d="m436.152 115.001 7.045-.001-491.971 1674.992-7.029.008zM1786.777 115.005h6.887l479.117 1674.986-6.89.014z"/><path d="M443.076 115.005h1345.199v5.049H441.638z"/></g></g></g></svg>