<?xml version="1.0" encoding="utf-8"?>
<!-- Svg Vector Icons : http://www.onlinewebfonts.com/icon -->
<!DOCTYPE svg PUBLIC "-//W3C//DTD SVG 1.1//EN" "http://www.w3.org/Graphics/SVG/1.1/DTD/svg11.dtd">
<svg version="1.1" xmlns="http://www.w3.org/2000/svg" xmlns:xlink="http://www.w3.org/1999/xlink" x="0px" y="0px" viewBox="0 0 1000 1000" enable-background="new 0 0 1000 1000" xml:space="preserve">
<metadata> Svg Vector Icons : http://www.onlinewebfonts.com/icon </metadata>
<g><g transform="translate(0.000000,511.000000) scale(0.100000,-0.100000)"><path d="M4882.3,4889.1c-880.6-652.6-2095.8-1248.7-2917.9-1426.5c-213.3-46-577.3-85.8-784.4-85.8h-127.6L1040,2651c-20.9-1041.6-16.7-2622.9,6.3-2976.4c23-363.9,62.8-583.6,156.9-870.1c192.4-589.8,556.4-1146.2,1106.5-1692.2c543.8-541.7,1096-947.5,2177.4-1600.1c253.1-152.7,481.1-286.5,506.2-299.1c37.6-16.7,123.4,27.2,585.7,299.1c1125.3,665.2,1685.9,1073,2204.6,1604.3C8341.9-2314.6,8685-1731,8858.6-1065.8c110.8,433,115,512.5,115,2551.8v1884.6l-286.6,12.5c-548,27.2-995.6,140.2-1633.6,414.2C6400.9,4077.5,5612.3,4562.8,5102,5000C5074.8,5025.1,5043.4,5008.3,4882.3,4889.1z M5235.8,4154.9c935-669.3,2179.5-1211.1,3053.8-1332.4L8390,2810l-8.3-1677.5c-6.3-1650.3-8.4-1681.7-54.4-1886.7c-232.2-1033.3-861.7-1819.7-2125.1-2656.4c-351.4-234.2-1131.6-700.7-1167.1-700.7c-29.3,0-558.5,313.8-891,529.2c-1160.9,746.7-1857.4,1434.9-2229.7,2200.4c-192.4,397.4-255.2,656.8-282.4,1171.3c-23,420.4-27.2,1652.4-6.3,2453.5l12.5,566.8l148.5,23c579.4,94.1,1202.7,311.7,1947.3,679.8c384.9,190.3,914.1,493.6,1171.3,673.5c69,48.1,133.9,87.9,142.2,87.9C5058,4276.2,5143.8,4221.9,5235.8,4154.9z"/></g></g>
</svg>